<svg width="40" height="40" viewBox="0 0 40 40" fill="none" xmlns="http://www.w3.org/2000/svg">
<mask id="mask0_3_4" style="mask-type:alpha" maskUnits="userSpaceOnUse" x="0" y="0" width="40" height="40">
<path d="M32 0H8C3.58172 0 0 3.58172 0 8V32C0 36.4183 3.58172 40 8 40H32C36.4183 40 40 36.4183 40 32V8C40 3.58172 36.4183 0 32 0Z" fill="white"/>
</mask>
<g mask="url(#mask0_3_4)">
<path d="M32 0H8C3.58172 0 0 3.58172 0 8V32C0 36.4183 3.58172 40 8 40H32C36.4183 40 40 36.4183 40 32V8C40 3.58172 36.4183 0 32 0Z" fill="#353D42"/>
<path d="M20.2129 28.4259C24.7488 28.4259 28.4259 24.7488 28.4259 20.2129C28.4259 15.6771 24.7488 12 20.2129 12C15.6771 12 12 15.6771 12 20.2129C12 24.7488 15.6771 28.4259 20.2129 28.4259Z" fill="#EAE2EB"/>
</g>
</svg>
