<svg width="45" height="46" xmlns="http://www.w3.org/2000/svg"><g fill-rule="nonzero" fill="none"><path d="M38.212 35.924c-8.614 7.933-20.185 11.162-29.058 2.27C.28 29.3-3.916 18.391 5.834 7.103 9.515 2.845 15.501.604 23.793.383c11.308-.3 20.719 8.622 21.02 19.93a20.482 20.482 0 01-6.6 15.612z" fill="#8DDAB9"/><path d="M34.231 31.839c-5.094 6.262-13.886 7.478-20.145 2.433-6.259-5.044-7.203-14.21-2.109-20.472 5.095-6.262 13.324-6.698 19.582-1.653 6.26 5.045 7.767 13.43 2.672 19.692z" fill="#EBE8E2"/><g fill="#353D42"><path d="M29.351 34.659c6.44 0 10.086-6.019 9.96-13.083-.06-3.461-.761-6.628-3.17-8.957-2.724-2.634-6.247-4.099-11.518-4.099-6.345 0-11.056 1.612-14.389 4.48-2.971 2.558-3.973 6.029-3.87 9.693.1 3.615 1.261 7.132 4.22 9.739 3.243 2.857 7.542 4.474 13.014 4.474 1.717 0 2.825.799 3.057 2.29.199 1.275-.25 3.04-1.314 5.353a.797.797 0 01-1.038.385.75.75 0 01-.399-1.003c.952-2.07 1.34-3.591 1.196-4.508-.109-.7-.52-.997-1.502-.997-5.854 0-10.795-1.751-14.335-4.871-3.273-2.884-5.145-6.79-5.258-10.821-.115-4.109 1.6-8.01 4.922-10.869C12.567 8.733 17.913 7 24.623 7c5.67 0 10.12 1.61 13.155 4.544 2.709 2.62 4.151 6.192 4.22 10.032.139 7.843-5.232 14.603-12.647 14.603-2.087 0-3.772-.8-5.066-2.23-.185.34-.376.676-.574 1.01a.801.801 0 01-1.074.281.746.746 0 01-.29-1.037c.322-.543.626-1.095.912-1.655-1.312-2.19-2.824-5.263-2.983-8.909-.126-2.896.41-5.929.982-8.323.637-2.666 2.045-4.28 3.365-4.28 2.244 0 4.33 3.442 4.327 8.157-.001 4.236-1.828 8.903-3.883 13.221 1.085 1.447 2.519 2.245 4.284 2.245zm-2.756-15.437c.001-3.88-1.034-6.59-1.997-6.649a.5.5 0 00-.077.058c-.121.107-.262.294-.408.553-.325.576-.636 1.438-.896 2.497-.555 2.262-.825 5.165-.7 7.933.129 2.894.638 5.344 1.51 7.2 1.704-3.832 2.566-7.893 2.568-11.592z"/><path d="M41.439 21.536c-.066-3.746-1.482-7.147-4.035-9.618-2.854-2.76-6.994-4.27-12.189-4.374 5.013.1 8.69 1.525 11.624 4.363 2.38 2.302 3.367 5.394 3.441 9.602.141 7.938-4.119 13.963-10.753 14.024 6.817-.062 12.048-6.307 11.912-13.997zM9.275 12.273c-3.153 2.716-4.822 6.432-4.711 10.4.108 3.886 1.922 7.635 5.058 10.4 3.402 3 8.1 4.657 13.589 4.732-5.393-.074-9.846-1.685-13.29-4.722-2.956-2.605-4.412-6.194-4.53-10.41-.12-4.282 1.196-7.838 4.183-10.41 3.56-3.066 8.464-4.666 14.72-4.723-6.36.058-11.502 1.706-15.019 4.733zm16.62 27.196c.176 1.13-.264 2.806-1.269 4.994 0-.004 0-.005.003-.004.014.006.028 0 .03-.003 1.032-2.245 1.439-3.89 1.269-4.983-.167-1.068-.894-1.634-2.21-1.664 1.264.03 2.005.559 2.177 1.66zm3.53-3.936zm-4.96-2.583l-.277-.37.197-.415c2.552-5.363 3.854-9.443 3.855-13.055.002-4.236-1.794-7.487-3.599-7.487-.932 0-2.095 1.438-2.645 3.74-.713 2.989-1.08 5.739-.973 8.215.13 2.993 1.155 5.726 2.91 8.659l.216.362-.192.375c-.296.58-.61 1.151-.94 1.709.011.005.027.001.03-.004.194-.328.383-.661.567-.998l.526-.969.742.82c1.188 1.316 2.687 1.993 4.511 2.001-1.994-.01-3.673-.909-4.929-2.583zm4.96 1.045c5.687 0 9.425-5.25 9.297-12.459-.068-3.842-.935-6.558-2.973-8.53-2.741-2.652-6.193-3.93-11.108-3.93-6.067 0-10.722 1.486-14.043 4.346-2.606 2.244-3.757 5.356-3.649 9.21.107 3.817 1.4 7.003 4.01 9.304 3.233 2.85 7.447 4.333 12.646 4.333 2.117 0 3.568 1.076 3.863 2.97.227 1.457-.244 3.359-1.39 5.853-.356.773-1.281 1.117-2.07.777a1.525 1.525 0 01-.803-2.038c.89-1.938 1.267-3.373 1.15-4.128-.048-.304-.125-.357-.75-.357-6.026 0-11.24-1.792-15.02-5.126-3.452-3.042-5.458-7.189-5.58-11.505-.123-4.429 1.743-8.585 5.246-11.601C12.14 7.766 17.768 6 24.641 6c5.85 0 10.584 1.656 13.854 4.82 2.853 2.76 4.429 6.548 4.502 10.69.152 8.535-5.771 15.562-13.572 15.562-1.913 0-3.578-.607-4.942-1.77l-.092.155a1.595 1.595 0 01-2.14.566 1.52 1.52 0 01-.584-2.11c.245-.413.48-.834.707-1.262-1.742-2.995-2.77-5.848-2.908-9.007-.115-2.64.27-5.52 1.013-8.634.696-2.914 2.323-4.925 4.162-4.925 2.92 0 5.16 4.052 5.158 9.026-.002 3.793-1.292 7.934-3.798 13.275.929 1.07 2.068 1.609 3.424 1.609zm-2.01-14.855c-.001 3.915-.924 8.128-2.662 12.04l-.694 1.562-.726-1.547c-.927-1.972-1.465-4.544-1.6-7.576-.128-2.836.142-5.851.73-8.245.276-1.128.612-2.064.981-2.72.183-.323.374-.58.574-.758.067-.059.134-.11.205-.15l.205-.118.236.014c1.683.104 2.753 3.408 2.752 7.498zm-1.558 0c.001-1.787-.224-3.4-.607-4.581-.149-.46-.315-.83-.48-1.089-.28.519-.557 1.305-.793 2.266-.551 2.249-.809 5.12-.688 7.815.088 1.964.352 3.705.78 5.178 1.172-3.18 1.787-6.491 1.788-9.59z"/></g></g></svg>
